<svg id="Layer_1" data-name="Layer 1" xmlns="http://www.w3.org/2000/svg" viewBox="0 0 48 48"><defs><style>.cls-1{fill:none;stroke:#000;stroke-linecap:round;stroke-linejoin:round;stroke-width:2px;}</style></defs><title>carrot</title><path class="cls-1" d="M24,8a10.62,10.62,0,0,1,4.54,1.09A2.78,2.78,0,0,1,30,11.79C29.56,18.8,28.75,44,25,44H23c-3.75,0-4.56-25.2-5-32.21a2.78,2.78,0,0,1,1.45-2.71A10.62,10.62,0,0,1,24,8"/><line class="cls-1" x1="24" y1="4" x2="24" y2="7"/><line class="cls-1" x1="27" y1="4" x2="27" y2="8"/><line class="cls-1" x1="21" y1="4" x2="21" y2="8"/><line class="cls-1" x1="28" y1="15" x2="29.82" y2="15"/><line class="cls-1" x1="19" y1="20" x2="20.82" y2="20"/><line class="cls-1" x1="27" y1="25" x2="28.82" y2="25"/><rect class="cls-1" x="-219" y="-15" width="690" height="690"/></svg>