<svg xmlns="http://www.w3.org/2000/svg" viewBox="0 0 512 512"><g id="Lemon"><path d="M371.93,245a200.31,200.31,0,0,0-8.21-22.61c-2.43-6.4-5.83-11.46-9.44-16.81-1.35-2-2.75-4.09-4.17-6.36-10.49-16.32-23.55-26-36.1-34.11l-.32-.19a158.62,158.62,0,0,0-15.09-7.7c-.15-12.94-7.05-25.34-18.25-33a70,70,0,0,0,53.39-77l-.68-5.39-5.39-.68a70,70,0,0,0-78.46,76.36,43.05,43.05,0,0,0-35,39.72,144.63,144.63,0,0,0-20.75,10.83l-.3.2c-21.49,15-37.13,34.25-46.46,57-13.2,31.91-17.39,64.13-12.45,95.76l0,.17c4.28,23.51,11.89,43.36,24,62.49a7.05,7.05,0,0,0,1,1.21,23.26,23.26,0,0,1,3.69,5.18,7,7,0,0,0,.75,1.19,126.24,126.24,0,0,0,50.77,39.07,43,43,0,0,0,42.09,41,37.49,37.49,0,0,0,5.69-.43h.11c21.31-3.56,36.61-21.36,36.21-41l8.91-4.91c25.17-13.89,44.85-34.49,56.91-59.57C381.74,329.43,384.48,285.54,371.93,245ZM279.26,71a55.53,55.53,0,0,1,41-16.38,56,56,0,0,1-57.4,57.4A55.61,55.61,0,0,1,279.26,71Zm72.53,288.38a120.79,120.79,0,0,1-51.06,53.38l-12.89,7.11a7,7,0,0,0-3.53,7.22c2.46,15.61-10.63,27.71-24.18,30a27.3,27.3,0,0,1-21.75-6.86,28.86,28.86,0,0,1-9.14-14.72c2.9.81,5.84,1.53,8.82,2.14a6.83,6.83,0,0,0,1.41.15,7,7,0,0,0,1.4-13.86c-26.55-5.45-48.67-19.16-65.74-40.75a38.9,38.9,0,0,0-5.37-7.52c-10.85-17.35-17.74-35.44-21.64-56.83-4.52-29-.62-58.69,11.58-88.19,8.29-20.25,22.21-37.35,41.39-50.81a127.59,127.59,0,0,1,22.59-11.28,7,7,0,0,0,4.53-6.93C227.4,146.33,239,132.57,254,131l.26,0c5.87-.84,11.79,1.3,15.77,3.28a28.57,28.57,0,0,1,13.92,17.81,81.21,81.21,0,0,0-17.3-2.74,7,7,0,1,0-.64,14c12.62.58,24.78,4.69,40.63,13.73,12.9,8.3,23.24,16.56,31.69,29.72,1.5,2.4,3,4.58,4.39,6.69,3.3,4.89,6.15,9.12,8,14.06a1.88,1.88,0,0,0,.12.3,185.57,185.57,0,0,1,7.7,21.16,1,1,0,0,0,.05.16C370.08,286.29,367.62,326.49,351.79,359.41Z"/></g></svg>