<svg xmlns="http://www.w3.org/2000/svg" viewBox="0 0 512 512"><g id="Orange"><path d="M263,167.44a123.35,123.35,0,0,0-1.6-14.66c1.09.05,2.19.09,3.28.09a70,70,0,0,0,69.29-78.82l-.68-5.39L327.87,68a70.09,70.09,0,0,0-76.93,53.14,73.79,73.79,0,0,0-19.79-24,7,7,0,0,0-8.59,11.06c21.72,16.88,25.68,47.07,26.38,59.25-73.19,3.69-131.6,64.39-131.6,138.48,0,76.45,62.2,138.66,138.66,138.66s138.66-62.21,138.66-138.66C394.66,231.81,336.2,171.09,263,167.44Zm16.49-69.62a55.51,55.51,0,0,1,41-16.38,56,56,0,0,1-57.4,57.4A55.57,55.57,0,0,1,279.46,97.82ZM256,430.59a124.66,124.66,0,0,1-6.92-249.13v4.27a7,7,0,0,0,14,0v-4.26c65.45,3.69,117.58,58.1,117.58,124.46A124.8,124.8,0,0,1,256,430.59Z"/><path d="M278.22,199.47A33.37,33.37,0,0,1,267,205H245a33.57,33.57,0,0,1-11.18-5.55,7,7,0,1,0-8.54,11.09,52.37,52.37,0,0,0,61.52,0,7,7,0,1,0-8.54-11.09Z"/></g></svg>