<svg id="Layer_1" data-name="Layer 1" xmlns="http://www.w3.org/2000/svg" viewBox="0 0 48 48"><defs><style>.cls-1{fill:none;stroke:#000;stroke-linecap:round;stroke-linejoin:round;stroke-width:2px;}</style></defs><title>pear</title><path class="cls-1" d="M37.94,31.12c0-.37.06-.74.06-1.12a14,14,0,0,0-4.43-10.2C32.67,18.12,32,17,32,17h0a8,8,0,0,0-16,0h0s-.67,1.12-1.57,2.8A14,14,0,0,0,10,30c0,.38,0,.75.06,1.12A7.82,7.82,0,0,0,10,32l.12-.29a14,14,0,0,0,27.77,0L38,32A7.82,7.82,0,0,0,37.94,31.12Z"/><path class="cls-1" d="M24,9s0-5,2-5"/><rect class="cls-1" x="-15" y="-627" width="690" height="690"/></svg>